<?xml version="1.0" encoding="utf-8"?>
<!-- Generator: Adobe Illustrator 28.3.0, SVG Export Plug-In . SVG Version: 6.00 Build 0)  -->
<svg version="1.1" id="Layer_1" xmlns="http://www.w3.org/2000/svg" xmlns:xlink="http://www.w3.org/1999/xlink" x="0px" y="0px"
	 viewBox="0 0 1600 461.6" style="enable-background:new 0 0 1600 461.6;" xml:space="preserve">
<style type="text/css">
	.st0{fill:#1459FF;}
	.st1{fill:#2C7DF7;}
	.st2{fill:#FFFFFF;}
	.textColor{fill:#000000;}
</style>
<g>
	<g transform="translate(421.962413, 421.158408)">
		<g>
			<path class="textColor" d="M260.7-78.8h-20.3c-24.4,0-41.9-4.6-52.6-13.8c-10.7-9.2-16-23.7-16-43.4v-68.9h-29v-38.5c9.1,0,16.2-2.7,21.3-8.1
				c5.1-5.4,7.7-12.9,7.7-22.4v-16.2h49.3v16.2c0,17.2-7.1,27.4-21.4,30.5h61v38.5h-39.6v68.6c0,5.7,1.5,9.7,4.5,12.2
				c3,2.5,8.2,3.7,15.6,3.7h19.6V-78.8z"/>
		</g>
	</g>
	<g transform="translate(519.152464, 421.158408)">
		<g>
			<path class="textColor" d="M179.3-78.8l86.3-123.1h-78.3v-41.6h162.5l-86.4,123.1h89.8v41.6H179.3z"/>
		</g>
	</g>
	<g transform="translate(658.905839, 421.158408)">
		<g>
			<path class="textColor" d="M235.4-78.8v-230h99.8c24.1,0,43.4,5.6,57.8,16.7c14.5,11.1,21.7,26.2,21.7,45.2c0,20.7-9.8,36.3-29.4,46.6
				c27.9,12.2,41.9,30.6,41.9,55.1c0,19.5-7.7,35.5-23.1,47.9c-15.4,12.4-35.5,18.6-60.2,18.6H235.4z M288.1-120.4h55.8
				c9.2,0,16.6-2.6,22.3-7.8c5.7-5.2,8.5-12.1,8.5-20.6c0-8.3-2.8-15-8.5-20c-5.7-5.1-13.1-7.6-22.3-7.6h-55.8V-120.4z M288.1-217.4
				h47.2c7.9,0,14.4-2.5,19.4-7.4c5.1-5,7.6-11.1,7.6-18.4c0-7.2-2.5-13-7.5-17.4c-5-4.4-11.5-6.6-19.5-6.6h-47.2V-217.4z"/>
		</g>
	</g>
	<g transform="translate(820.396096, 421.158408)">
		<g>
			<path class="textColor" d="M357.4-78.8v-187.1h-78.3v-42.9h209.1v42.9h-78.3v187.1H357.4z"/>
		</g>
	</g>
	<g transform="translate(985.641943, 421.158408)">
		<g>
			<path class="textColor" d="M501.1-154.7l46.6,20.5c-4.1,18.3-14.8,32.5-32.3,42.7c-17.5,10.1-40,15.2-67.5,15.2c-20.4,0-37.5-2.1-51.2-6.1
				s-25-10.9-33.8-20.3c-8.8-9.5-15.1-21.5-19-36.2c-3.8-14.7-5.8-32.9-5.8-54.8c0-21.8,2.1-40.3,6.4-55.3
				c4.3-15,11.1-27.1,20.4-36.3c9.3-9.2,20.7-15.8,34.2-19.8c13.5-4,30-6,49.4-6c26.7,0,48.7,5.1,65.9,15.2
				c17.2,10.2,27.9,24.4,31.9,42.6L500-233c-2.6-10.9-8.5-19.2-17.6-25c-9.1-5.7-21-8.6-35.8-8.6c-8.1,0-15,0.6-20.6,1.8
				c-5.6,1.2-10.8,3.4-15.5,6.5c-4.7,3.1-8.5,7.4-11.2,13c-2.8,5.5-4.9,12.5-6.4,21c-1.5,8.4-2.2,18.7-2.2,30.7
				c0,10.7,0.2,19.6,0.8,26.6c0.5,7,1.6,13.3,3.2,19.1c1.6,5.8,3.7,10.2,6.1,13.4c2.4,3.2,5.8,5.8,10.2,8c4.4,2.1,9.4,3.5,14.9,4.2
				c5.6,0.7,12.5,1.1,20.9,1.1c14.8,0,26.9-2.9,36.3-8.7C492.6-135.7,498.5-144,501.1-154.7z"/>
		</g>
	</g>
</g>
<g>
	<g>
		<path class="st0" d="M468.3,147.1c-10.8-25.4-26.2-48.3-45.8-67.9c-19.6-19.6-42.5-35-67.9-45.8c-26.3-11.1-54.3-16.8-83.2-16.8
			s-56.8,5.7-83.2,16.8c-25.4,10.8-48.3,26.2-67.9,45.8c-19.6,19.6-35,42.5-45.8,67.9c-11.1,26.3-16.8,54.3-16.8,83.2
			s5.7,56.8,16.8,83.2c10.8,25.4,26.2,48.3,45.8,67.9c19.6,19.6,42.5,35,67.9,45.8c26.3,11.1,54.3,16.8,83.2,16.8
			s56.8-5.7,83.2-16.8c25.4-10.8,48.3-26.2,67.9-45.8c19.6-19.6,35-42.5,45.8-67.9c11.1-26.3,16.8-54.3,16.8-83.2
			S479.4,173.5,468.3,147.1z"/>
	</g>
</g>
<path class="st1" d="M253.1,319.6v0.1c-0.1,0-0.3-0.1-0.4-0.1H253.1z"/>
<path class="st1" d="M253.2,319.6v0.2c0,0-0.1,0-0.1,0c-0.1,0-0.3-0.1-0.4-0.1H253.2z"/>
<path class="st1" d="M253.2,319.6v0.2c0,0-0.1,0-0.1,0c-0.1,0-0.3-0.1-0.4-0.1H253.2z"/>
<path class="st1" d="M273.7,319.9v2.6c0,0,0,0-0.1,0L273.7,319.9L273.7,319.9z"/>
<path class="st2" d="M253.2,319v55.1h-26.9v-27.5H183V319C183,319,253.1,319,253.2,319z"/>
<path class="st2" d="M373.2,301.3c-12.8,29.7-45.1,44.5-75.8,46.1c-1.5,0.1-3.1,0.2-4.8,0.2v25.5h-26.9l0.1-53.2V319
	c16.6,0,26.9-0.3,29.6-0.6c28.2-2.3,54.4-20,50.9-51.1c-1.2-10.9-6-22.5-14.8-29.6c-11.5-9.7-29.9-12.2-45.1-11.2l-0.6,0h0
	l-9.7-25.5l48.2-44h-81.2v93.3c0,11.5,9.4,20.9,20.9,20.9c6.1,0,11.5-1.8,15.6-5l11.2,29.4c-7.9,4.2-17.1,6.5-26.8,6.5
	c-28.6,0-51.9-23.3-51.9-51.9V157h-37.1v-26.9H214V86.6h26.9v43.6h24.6V86.6h26.9v43.6h66.4l9.1,23.4l-52.2,47.7
	c5.6,0.7,11.2,2,16.6,3.9c15.4,5.2,29.8,16.2,37.1,30.9C379.4,255.9,382.4,280.4,373.2,301.3z"/>
</svg>
